<?xml version="1.0" standalone="no"?>
<!DOCTYPE svg PUBLIC "-//W3C//DTD SVG 20010904//EN"
 "http://www.w3.org/TR/2001/REC-SVG-20010904/DTD/svg10.dtd">
<svg version="1.0" xmlns="http://www.w3.org/2000/svg"
 width="2555.000000pt" height="739.000000pt" viewBox="0 0 2555.000000 739.000000"
 preserveAspectRatio="xMidYMid meet">

<g transform="translate(0.000000,739.000000) scale(0.100000,-0.100000)"
fill="#000000" stroke="none">
<path d="M12513 4478 l2 -2523 23 -100 c93 -407 289 -745 582 -1003 237 -208
543 -361 845 -421 129 -26 344 -46 356 -34 5 5 8 193 7 453 l-3 444 -98 13
c-243 30 -461 148 -605 328 -78 96 -123 177 -164 295 l-33 95 -3 2488 -2 2487
-455 0 -455 0 3 -2522z"/>
<path d="M23620 5834 c0 -941 -2 -1165 -13 -1161 -7 2 -48 30 -92 62 -514 369
-1206 518 -1830 394 -369 -73 -694 -219 -1000 -448 -128 -97 -349 -318 -446
-446 -272 -364 -432 -767 -480 -1213 -17 -162 -7 -473 21 -631 153 -874 755
-1583 1583 -1867 272 -93 615 -144 872 -129 614 35 1158 273 1578 688 376 371
602 817 694 1367 16 97 18 265 20 2328 l3 2222 -455 0 -455 0 0 -1166z m-1210
-1599 c549 -108 991 -509 1145 -1040 41 -144 56 -248 56 -405 1 -236 -48 -455
-148 -655 -203 -408 -555 -686 -1003 -792 -141 -33 -400 -42 -540 -19 -339 55
-631 209 -859 452 -189 202 -311 440 -373 727 -31 146 -31 417 0 563 125 580
534 1008 1097 1149 57 14 131 30 166 35 94 13 360 4 459 -15z"/>
<path d="M3145 5159 c-219 -26 -474 -95 -672 -179 -284 -122 -513 -277 -736
-498 -206 -204 -341 -390 -467 -647 -167 -338 -245 -673 -245 -1050 0 -201 11
-305 52 -500 146 -705 619 -1313 1273 -1640 369 -185 822 -277 1212 -246 178
14 368 47 521 91 340 98 695 298 940 531 l78 74 -160 159 -160 159 -78 -68
c-186 -163 -366 -274 -581 -359 -504 -198 -1070 -175 -1557 63 -802 393 -1228
1274 -1040 2151 40 186 139 431 243 597 255 411 671 724 1125 848 647 176
1350 8 1820 -434 l68 -65 162 163 162 162 -75 71 c-327 306 -754 515 -1225
599 -138 24 -520 35 -660 18z"/>
<path d="M7019 5155 c-444 -69 -838 -304 -1110 -660 -145 -190 -259 -439 -309
-677 -38 -180 -41 -318 -38 -1898 l3 -1525 227 -3 227 -2 4 1627 c3 1626 3
1628 24 1713 47 183 113 333 207 464 197 274 519 469 839 507 51 6 111 13 135
15 l42 5 0 225 0 224 -82 -1 c-46 -1 -122 -7 -169 -14z"/>
<path d="M9390 5160 c-541 -66 -1037 -306 -1420 -690 -310 -310 -516 -670
-625 -1095 -59 -229 -70 -323 -70 -590 0 -185 4 -265 18 -350 91 -545 329
-1005 711 -1373 449 -431 1032 -665 1656 -665 605 0 1177 223 1623 633 l69 63
-159 159 c-87 87 -162 158 -167 158 -4 0 -36 -26 -70 -58 -187 -174 -431 -315
-696 -403 -214 -70 -360 -93 -600 -93 -284 0 -475 37 -730 139 -593 238 -1031
767 -1165 1405 -36 168 -45 467 -21 640 58 413 233 778 515 1072 380 396 861
602 1406 600 489 -1 942 -176 1296 -500 l66 -61 162 163 162 163 -100 87
c-354 311 -736 494 -1206 578 -126 22 -527 33 -655 18z"/>
<path d="M16625 5154 c-60 -9 -177 -33 -260 -54 -672 -169 -1222 -601 -1539
-1210 -157 -301 -240 -597 -267 -952 -20 -255 15 -572 91 -827 261 -878 987
-1523 1890 -1680 314 -55 567 -51 887 15 614 125 1155 491 1509 1022 93 138
214 387 268 549 39 117 86 290 86 316 0 4 -211 7 -468 7 l-469 0 -28 -72
c-165 -427 -501 -749 -925 -887 -190 -61 -446 -87 -635 -62 -259 34 -514 138
-715 291 -86 66 -222 198 -218 212 3 9 170 80 1038 438 184 76 484 200 665
275 316 132 723 300 1075 445 532 220 656 272 664 280 25 25 -88 373 -187 575
-342 695 -977 1168 -1752 1306 -161 29 -545 36 -710 13z m613 -923 c232 -51
457 -156 627 -294 61 -49 195 -179 195 -188 0 -8 -65 -35 -777 -330 -137 -56
-263 -109 -575 -238 -79 -32 -237 -98 -353 -146 -115 -48 -274 -114 -352 -146
-79 -32 -207 -86 -285 -118 -79 -33 -167 -69 -197 -81 l-54 -21 6 168 c8 230
42 374 134 572 93 201 268 418 445 551 198 149 454 255 702 290 104 15 379 4
484 -19z"/>
</g>
</svg>
